<svg xmlns="http://www.w3.org/2000/svg" viewBox="0 0 120 120" width="120" height="120" role="img">
<defs>
  <filter id="w" x="-5%" y="-5%" width="110%" height="110%">
    <feTurbulence type="fractalNoise" baseFrequency="0.018" numOctaves="2" seed="28" result="n"/>
    <feDisplacementMap in="SourceGraphic" in2="n" scale="1.6" xChannelSelector="R" yChannelSelector="G"/>
  </filter>
</defs>
<g filter="url(#w)" fill="none" stroke="#1e2b31" stroke-width="3" stroke-linecap="round" stroke-linejoin="round">
<ellipse cx="60" cy="62" rx="46" ry="44" fill="#d9f3f1" stroke="none"/><rect x="22" y="30" width="76" height="68" rx="8" fill="#ffffff" stroke="#1e2b31" stroke-width="3" stroke-linecap="round" stroke-linejoin="round"/><rect x="22" y="30" width="76" height="18" rx="6" fill="#17a2a2" stroke="#1e2b31" stroke-width="3" stroke-linecap="round" stroke-linejoin="round"/><line x1="40" y1="24" x2="40" y2="38" stroke="#1e2b31" stroke-width="4" stroke-linecap="round" stroke-linejoin="round"/><line x1="80" y1="24" x2="80" y2="38" stroke="#1e2b31" stroke-width="4" stroke-linecap="round" stroke-linejoin="round"/><rect x="32" y="56" width="10" height="8" rx="2" fill="#e3ebec" stroke="#1e2b31" stroke-width="1.5" stroke-linecap="round" stroke-linejoin="round"/><rect x="32" y="70" width="10" height="8" rx="2" fill="#e3ebec" stroke="#1e2b31" stroke-width="1.5" stroke-linecap="round" stroke-linejoin="round"/><rect x="32" y="84" width="10" height="8" rx="2" fill="#e3ebec" stroke="#1e2b31" stroke-width="1.5" stroke-linecap="round" stroke-linejoin="round"/><rect x="48" y="56" width="10" height="8" rx="2" fill="#e3ebec" stroke="#1e2b31" stroke-width="1.5" stroke-linecap="round" stroke-linejoin="round"/><rect x="48" y="70" width="10" height="8" rx="2" fill="#e3ebec" stroke="#1e2b31" stroke-width="1.5" stroke-linecap="round" stroke-linejoin="round"/><rect x="48" y="84" width="10" height="8" rx="2" fill="#e3ebec" stroke="#1e2b31" stroke-width="1.5" stroke-linecap="round" stroke-linejoin="round"/><rect x="64" y="56" width="10" height="8" rx="2" fill="#e3ebec" stroke="#1e2b31" stroke-width="1.5" stroke-linecap="round" stroke-linejoin="round"/><rect x="64" y="70" width="10" height="8" rx="2" fill="#e3ebec" stroke="#1e2b31" stroke-width="1.5" stroke-linecap="round" stroke-linejoin="round"/><rect x="64" y="84" width="10" height="8" rx="2" fill="#e3ebec" stroke="#1e2b31" stroke-width="1.5" stroke-linecap="round" stroke-linejoin="round"/><rect x="80" y="56" width="10" height="8" rx="2" fill="#e3ebec" stroke="#1e2b31" stroke-width="1.5" stroke-linecap="round" stroke-linejoin="round"/><rect x="80" y="70" width="10" height="8" rx="2" fill="#e3ebec" stroke="#1e2b31" stroke-width="1.5" stroke-linecap="round" stroke-linejoin="round"/><rect x="80" y="84" width="10" height="8" rx="2" fill="#e3ebec" stroke="#1e2b31" stroke-width="1.5" stroke-linecap="round" stroke-linejoin="round"/><circle cx="72" cy="78" r="16" fill="#f6bf45" stroke="#1e2b31" stroke-width="2.5" stroke-linecap="round" stroke-linejoin="round"/><path d="M64,78 L70,84 L81,70" fill="none" stroke="#1e2b31" stroke-width="4" stroke-linecap="round" stroke-linejoin="round" /><path d="M104,19 Q104,26 111,26 Q104,26 104,33 Q104,26 97,26 Q104,26 104,19Z" fill="#f6bf45" stroke="#1e2b31" stroke-width="2.2" stroke-linecap="round" stroke-linejoin="round"/>
</g>
</svg>
