<svg xmlns="http://www.w3.org/2000/svg" viewBox="0 0 120 120" width="120" height="120" role="img">
<defs>
  <filter id="w" x="-5%" y="-5%" width="110%" height="110%">
    <feTurbulence type="fractalNoise" baseFrequency="0.018" numOctaves="2" seed="31" result="n"/>
    <feDisplacementMap in="SourceGraphic" in2="n" scale="1.6" xChannelSelector="R" yChannelSelector="G"/>
  </filter>
</defs>
<g filter="url(#w)" fill="none" stroke="#1e2b31" stroke-width="3" stroke-linecap="round" stroke-linejoin="round">
<ellipse cx="60" cy="62" rx="46" ry="44" fill="#d9f3f1" stroke="none"/><rect x="20" y="24" width="66" height="72" rx="5" fill="#0f7f7f" stroke="#1e2b31" stroke-width="3" stroke-linecap="round" stroke-linejoin="round"/><rect x="28" y="32" width="50" height="56" rx="2" fill="#cdeefb" stroke="#1e2b31" stroke-width="2" stroke-linecap="round" stroke-linejoin="round"/><path d="M55.5,36.480000000000004 L40.5,83.52000000000001" fill="none" stroke="#ffffff" stroke-width="7" stroke-linecap="round" stroke-linejoin="round" opacity=".9"/><path d="M65.5,36.480000000000004 L59.0,57.2" fill="none" stroke="#ffffff" stroke-width="5" stroke-linecap="round" stroke-linejoin="round" opacity=".9"/><line x1="53" y1="32" x2="53" y2="88" stroke="#0f7f7f" stroke-width="5" stroke-linecap="round" stroke-linejoin="round"/><line x1="28" y1="60" x2="78" y2="60" stroke="#0f7f7f" stroke-width="5" stroke-linecap="round" stroke-linejoin="round"/><rect x="70" y="66" width="36" height="34" rx="5" fill="#ffffff" stroke="#1e2b31" stroke-width="2.5" stroke-linecap="round" stroke-linejoin="round"/><rect x="70" y="66" width="36" height="9" rx="4" fill="#f6bf45" stroke="#1e2b31" stroke-width="2.5" stroke-linecap="round" stroke-linejoin="round"/><path d="M78,84 L84,90 L96,80" fill="none" stroke="#17a2a2" stroke-width="3" stroke-linecap="round" stroke-linejoin="round" /><path d="M100,16 Q100,24 108,24 Q100,24 100,32 Q100,24 92,24 Q100,24 100,16Z" fill="#f6bf45" stroke="#1e2b31" stroke-width="2.2" stroke-linecap="round" stroke-linejoin="round"/>
</g>
</svg>
