<svg xmlns="http://www.w3.org/2000/svg" viewBox="0 0 120 120" width="120" height="120" role="img">
<defs>
  <filter id="w" x="-5%" y="-5%" width="110%" height="110%">
    <feTurbulence type="fractalNoise" baseFrequency="0.018" numOctaves="2" seed="29" result="n"/>
    <feDisplacementMap in="SourceGraphic" in2="n" scale="1.6" xChannelSelector="R" yChannelSelector="G"/>
  </filter>
</defs>
<g filter="url(#w)" fill="none" stroke="#1e2b31" stroke-width="3" stroke-linecap="round" stroke-linejoin="round">
<ellipse cx="60" cy="62" rx="46" ry="44" fill="#d9f3f1" stroke="none"/><circle cx="50" cy="50" r="28" fill="#cdeefb" stroke="#1e2b31" stroke-width="3.5" stroke-linecap="round" stroke-linejoin="round"/><circle cx="50" cy="50" r="20" fill="#ffffff" stroke="#1e2b31" stroke-width="0" stroke-linecap="round" stroke-linejoin="round"/><line x1="70" y1="70" x2="98" y2="98" stroke="#1e2b31" stroke-width="9" stroke-linecap="round" stroke-linejoin="round"/><line x1="70" y1="70" x2="98" y2="98" stroke="#f6bf45" stroke-width="5" stroke-linecap="round" stroke-linejoin="round"/><path d="M50,34 Q50,48 64,48 Q50,48 50,62 Q50,48 36,48 Q50,48 50,34Z" fill="#f6bf45" stroke="#1e2b31" stroke-width="2.5" stroke-linecap="round" stroke-linejoin="round"/><path d="M20,86 Q20,92 26,92 Q20,92 20,98 Q20,92 14,92 Q20,92 20,86Z" fill="#f6bf45" stroke="#1e2b31" stroke-width="2.2" stroke-linecap="round" stroke-linejoin="round"/><path d="M100,19 Q100,26 107,26 Q100,26 100,33 Q100,26 93,26 Q100,26 100,19Z" fill="#f6bf45" stroke="#1e2b31" stroke-width="2.2" stroke-linecap="round" stroke-linejoin="round"/>
</g>
</svg>
